<?xml version="1.0" standalone="no"?>
<!DOCTYPE svg PUBLIC "-//W3C//DTD SVG 20010904//EN"
 "http://www.w3.org/TR/2001/REC-SVG-20010904/DTD/svg10.dtd">
<svg version="1.0" xmlns="http://www.w3.org/2000/svg"
 width="920.000000pt" height="512.000000pt" viewBox="0 0 920.000000 512.000000"
 preserveAspectRatio="xMidYMid meet">
<metadata>
Created by potrace 1.16, written by Peter Selinger 2001-2019
</metadata>
<g transform="translate(0.000000,512.000000) scale(0.100000,-0.100000)"
fill="#000000" stroke="none">
<path d="M4530 4887 c-38 -12 -119 -90 -993 -951 -315 -311 -537 -537 -550
-561 -26 -49 -28 -136 -4 -181 19 -36 79 -91 114 -105 42 -16 131 -11 171 10
20 11 71 54 112 95 41 42 78 76 82 76 5 0 8 -271 8 -602 l0 -603 1130 0 1130
0 0 603 c0 331 3 602 8 602 4 0 41 -34 82 -76 41 -41 92 -84 114 -95 42 -22
123 -27 167 -10 37 14 97 68 116 105 23 45 22 132 -4 181 -12 22 -114 131
-229 245 -115 112 -444 436 -731 720 -288 283 -539 524 -559 534 -44 23 -117
29 -164 13z m500 -915 l420 -414 0 -619 0 -618 -250 -3 -250 -3 -2 354 -3 354
-347 1 -348 1 0 -357 0 -358 -22 4 c-13 3 -125 5 -250 5 l-228 1 0 619 0 619
423 416 c232 229 425 415 429 413 4 -1 196 -188 428 -415z"/>
<path d="M2121 3359 c-22 -35 -26 -59 -46 -259 -22 -222 -38 -536 -32 -620 3
-48 16 -105 36 -158 89 -239 311 -717 390 -840 41 -63 77 -100 154 -155 81
-59 374 -244 593 -374 237 -141 293 -188 344 -289 24 -47 25 -59 28 -246 l4
-198 433 0 433 0 6 218 c3 119 9 261 12 315 15 252 -121 535 -377 782 -100 97
-154 137 -234 177 -111 56 -287 99 -500 122 -110 12 -131 17 -174 45 -57 37
-127 109 -237 246 -226 280 -480 429 -601 355 -24 -14 -33 -27 -33 -46 0 -33
10 -50 89 -159 37 -49 104 -144 151 -210 46 -66 122 -162 169 -214 l86 -94
-60 37 c-107 68 -143 100 -178 161 -31 53 -125 183 -261 358 -46 59 -63 108
-52 150 8 33 55 77 88 84 16 3 31 9 33 13 7 11 -53 530 -71 625 -20 97 -43
146 -87 179 -47 36 -82 34 -106 -5z"/>
<path d="M6972 3364 c-44 -35 -67 -84 -86 -184 -20 -104 -78 -609 -71 -620 2
-4 17 -10 33 -13 33 -7 80 -51 88 -84 13 -49 -7 -93 -83 -190 -109 -139 -209
-278 -239 -332 -26 -47 -64 -80 -169 -147 l-60 -37 78 84 c42 46 118 143 169
214 50 72 110 155 133 185 127 168 140 205 83 240 -68 41 -166 18 -304 -72
-98 -63 -197 -159 -319 -308 -106 -130 -156 -181 -224 -226 -33 -22 -60 -28
-159 -39 -313 -35 -497 -94 -638 -206 -86 -68 -230 -221 -290 -309 -65 -94
-125 -213 -160 -315 -31 -91 -33 -152 -19 -557 l7 -228 433 0 433 0 4 197 c3
188 4 200 28 247 51 101 107 147 354 295 233 140 506 311 583 368 77 55 113
92 154 155 77 120 275 545 393 843 31 80 31 80 30 265 -2 296 -41 710 -72 764
-24 42 -65 45 -110 10z"/>
</g>
</svg>
