<svg id="Layer_5" enable-background="new 0 0 64 64" height="512" viewBox="0 0 64 64" width="512" xmlns="http://www.w3.org/2000/svg"><path d="m63 19.784v-7.568l-2.794-.687c-.123-.332-.262-.664-.416-.995l1.492-2.465-5.352-5.352-2.464 1.493c-.331-.154-.663-.293-.995-.416l-.687-2.794h-7.568l-.687 2.794c-.332.123-.664.262-.995.416l-2.465-1.492-5.352 5.352 1.492 2.465c-.154.331-.293.663-.416.995l-2.793.686v6.784h-27c-2.757 0-5 2.243-5 5v24c0 2.757 2.243 5 5 5h8v4h-4c-1.103 0-2 .897-2 2v2c0 1.103.897 2 2 2h21 2.04 29.96v-4c0-7.276-4.887-13.423-11.549-15.357 2.139-1.438 3.549-3.878 3.549-6.643 0-2.609-1.261-4.923-3.199-6.384l.102-.099.568-2.311c.332-.123.664-.262.995-.416l2.465 1.492 5.352-5.352-1.492-2.465c.154-.331.293-.663.416-.995zm-57 1.216h34c1.654 0 3 1.346 3 3v6.082c-.753.437-1.428.994-2 1.644v-6.726c0-1.103-.897-2-2-2h-32c-1.103 0-2 .897-2 2v20h-2v-21c0-1.654 1.346-3 3-3zm35-5c0-3.859 3.141-7 7-7s7 3.141 7 7-3.141 7-7 7c-1.188 0-2.344-.313-3.374-.883-.508-1.243-1.5-2.235-2.744-2.743-.569-1.032-.882-2.187-.882-3.374zm10.866 38.969-3.446 6.031h-.104l4.137-14.894c.427.181.843.385 1.248.606l-.634 3.807-2.283 2.283zm-6.286 6.031-3.446-6.031 1.083-2.166-2.283-2.283-.634-3.807c.404-.221.82-.425 1.248-.606l4.136 14.893zm-10.58-16h-2v-16h2zm6-.822v-1.904c.456.519.973.983 1.549 1.369-.528.153-1.045.33-1.549.535zm-2 .822h-2v-18h-6v18h-2v-14h-6v14h-2v-10h-6v10h-8v-20h32zm-12 0h-2v-12h2zm-8 0h-2v-8h2zm-16 3v-1h33.453c-1.301 1.145-2.413 2.493-3.288 4h-27.165c-1.654 0-3-1.346-3-3zm13 5h16.178c-.513 1.262-.864 2.603-1.039 4h-15.139zm-6 8v-2h21v2zm23 0v-2c0-4.51 2.152-8.517 5.474-11.079l.593 3.559 1.717 1.717-.917 1.834 3.41 5.969h-5.277v-8h-2v8h-2.96zm28-2v2h-3v-8h-2v8h-5.277l3.411-5.969-.917-1.834 1.717-1.717.593-3.559c3.321 2.562 5.473 6.569 5.473 11.079zm-10.448-13.526-3.552 12.788-3.552-12.788c1.137-.299 2.323-.474 3.552-.474s2.415.175 3.552.474zm2.448-8.474c0 3.309-2.691 6-6 6s-6-2.691-6-6 2.691-6 6-6 6 2.691 6 6zm5.759-13.374-3.133 3.133-2.074-1.255-.498.259c-.573.298-1.154.541-1.725.722l-.536.169-.695 2.83-.106.103c-.925-.376-1.934-.587-2.992-.587-.692 0-1.359.097-2 .263v-4.799c.96.34 1.969.536 3 .536 4.963 0 9-4.037 9-9s-4.037-9-9-9-9 4.037-9 9c0 1.031.196 2.04.536 3h-4.536v-5.216l2.347-.577.169-.536c.181-.57.424-1.151.722-1.725l.259-.498-1.255-2.074 3.133-3.133 2.074 1.255.498-.259c.573-.298 1.154-.541 1.725-.722l.536-.169.576-2.346h4.432l.577 2.347.536.169c.57.181 1.151.424 1.725.722l.498.259 2.074-1.255 3.133 3.133-1.255 2.074.259.498c.298.573.541 1.154.722 1.725l.169.536 2.346.576v4.432l-2.347.577-.169.535c-.181.571-.424 1.152-.722 1.726l-.259.498z"/><path d="m48 21c2.757 0 5-2.243 5-5s-2.243-5-5-5-5 2.243-5 5 2.243 5 5 5zm0-8c1.654 0 3 1.346 3 3s-1.346 3-3 3-3-1.346-3-3 1.346-3 3-3z"/><path d="m9 27h2v2h-2z"/><path d="m13 27h2v2h-2z"/><path d="m17 27h2v2h-2z"/><path d="m9 31h10v2h-10z"/></svg>