<?xml version="1.0" encoding="utf-8"?>
<!-- Generator: Adobe Illustrator 16.0.3, SVG Export Plug-In . SVG Version: 6.00 Build 0)  -->
<!DOCTYPE svg PUBLIC "-//W3C//DTD SVG 1.1//EN" "http://www.w3.org/Graphics/SVG/1.1/DTD/svg11.dtd">
<svg version="1.1" xmlns="http://www.w3.org/2000/svg" xmlns:xlink="http://www.w3.org/1999/xlink" x="0px" y="0px" width="216px"
	 height="215px" viewBox="0 0 216 215" enable-background="new 0 0 216 215" xml:space="preserve">
<g id="Capa_1">
	<text transform="matrix(1 0 0 1 -20.0576 258.6372)" display="none" fill="#2F4254" font-family="'Arimo-Bold'" font-size="60">LuksOne</text>
	<text transform="matrix(1 0 0 1 21.9863 311.5649)" display="none" fill="#47A6CB" font-family="'Arvo'" font-size="48">System</text>
	<text transform="matrix(1 0 0 1 60.1616 124.4409)" fill="#293D4F" font-family="'Arvo'" font-size="90">L</text>
	<text transform="matrix(1 0 0 1 101.3037 158.4272)" fill="#313D4F" font-family="'Arvo'" font-size="90">S</text>
</g>
<g id="Capa_3">
	<path fill="none" stroke="#F0BA16" stroke-width="9" stroke-miterlimit="10" d="M89.417,13.652
		c-31.931,6.769-59.906,30.032-71.284,60.779c-1.771,4.784-3.129,9.719-4.045,14.737"/>
	<path fill="none" stroke="#47A6CB" stroke-width="9" stroke-miterlimit="10" d="M202.482,88.965
		c-6.757-34.422-33.127-63.311-66.728-73.317c-3.315-0.987-6.685-1.794-10.087-2.416"/>
	<path fill="none" stroke="#293D4F" stroke-width="9" stroke-miterlimit="10" d="M125.61,202.024
		c37.591-6.994,68.275-36.314,76.48-73.751c0.168-0.768,0.327-1.537,0.476-2.309"/>
	<path fill="none" stroke="#47A6CB" stroke-width="9" stroke-miterlimit="10" d="M14.183,126.328
		c6.938,35.629,34.64,64.951,69.71,74.202c1.869,0.493,3.753,0.928,5.649,1.304"/>
</g>
</svg>
